HIERARCHY
ROOT hip
{
  OFFSET 0 0 0
  CHANNELS 6 Xposition Yposition Zposition Zrotation Yrotation Xrotation
  JOINT abdomen
  {
    OFFSET 0 20.6881 -0.73152
    CHANNELS 3 Zrotation Xrotation Yrotation
    JOINT chest
    {
      OFFSET 0 11.7043 -0.48768
      CHANNELS 3 Zrotation Xrotation Yrotation
      JOINT neck
      {
        OFFSET 0 22.1894 -2.19456
        CHANNELS 3 Zrotation Xrotation Yrotation
        JOINT head
        {
          OFFSET -0.24384 7.07133 1.2192
          CHANNELS 3 Zrotation Xrotation Yrotation
          JOINT leftEye
          {
            OFFSET 4.14528 8.04674 8.04672
            CHANNELS 3 Zrotation Xrotation Yrotation
            End Site
            {
              OFFSET 1 0 0
            }
          }
          JOINT rightEye
          {
            OFFSET -3.6576 8.04674 8.04672
            CHANNELS 3 Zrotation Xrotation Yrotation
            End Site
            {
              OFFSET 1 0 0
            }
          }
        }
      }
      JOINT rCollar
      {
        OFFSET -2.68224 19.2634 -4.8768
        CHANNELS 3 Zrotation Xrotation Yrotation
        JOINT rShldr
        {
          OFFSET -8.77824 -1.95073 1.46304
          CHANNELS 3 Zrotation Xrotation Yrotation
          JOINT rForeArm
          {
            OFFSET -28.1742 -1.7115 0.48768
            CHANNELS 3 Zrotation Xrotation Yrotation
            JOINT rHand
            {
              OFFSET -22.5879 0.773209 7.07136
              CHANNELS 3 Zrotation Xrotation Yrotation
              JOINT rThumb1
              {
                OFFSET -1.2192 -0.487915 3.41376
                CHANNELS 3 Zrotation Xrotation Yrotation
                JOINT rThumb2
                {
                  OFFSET -3.37035 -0.52449 3.41376
                  CHANNELS 3 Zrotation Xrotation Yrotation
                  End Site
                  {
                    OFFSET -1.78271 -1.18214 1.43049
                  }
                }
              }
              JOINT rIndex1
              {
                OFFSET -7.75947 0.938293 5.60832
                CHANNELS 3 Zrotation Xrotation Yrotation
                JOINT rIndex2
                {
                  OFFSET -2.54057 -0.884171 1.56538
                  CHANNELS 3 Zrotation Xrotation Yrotation
                  End Site
                  {
                    OFFSET -1.62519 -0.234802 1.16502
                  }
                }
              }
              JOINT rMid1
              {
                OFFSET -8.24714 1.18213 3.41376
                CHANNELS 3 Zrotation Xrotation Yrotation
                JOINT rMid2
                {
                  OFFSET -3.10165 -0.590103 1.0647
                  CHANNELS 3 Zrotation Xrotation Yrotation
                  End Site
                  {
                    OFFSET -2.48547 -0.328903 0.83742
                  }
                }
              }
              JOINT rRing1
              {
                OFFSET -8.82822 0.546677 1.51678
                CHANNELS 3 Zrotation Xrotation Yrotation
                JOINT rRing2
                {
                  OFFSET -2.60934 -0.819778 -0.0198488
                  CHANNELS 3 Zrotation Xrotation Yrotation
                  End Site
                  {
                    OFFSET -2.33842 -0.294052 0.168128
                  }
                }
              }
              JOINT rPinky1
              {
                OFFSET -8.27202 -0.0477905 -0.4584
                CHANNELS 3 Zrotation Xrotation Yrotation
                JOINT rPinky2
                {
                  OFFSET -1.82734 -0.647385 -0.700984
                  CHANNELS 3 Zrotation Xrotation Yrotation
                  End Site
                  {
                    OFFSET -1.69225 -0.51767 -0.607171
                  }
                }
              }
            }
          }
        }
      }
      JOINT lCollar
      {
        OFFSET 2.68224 19.2634 -4.8768
        CHANNELS 3 Zrotation Xrotation Yrotation
        JOINT lShldr
        {
          OFFSET 8.77824 -1.95073 1.46304
          CHANNELS 3 Zrotation Xrotation Yrotation
          JOINT lForeArm
          {
            OFFSET 28.1742 -1.7115 0.48768
            CHANNELS 3 Zrotation Xrotation Yrotation
            JOINT lHand
            {
              OFFSET 22.5879 0.773209 7.07136
              CHANNELS 3 Zrotation Xrotation Yrotation
              JOINT lThumb1
              {
                OFFSET 1.2192 -0.487915 3.41376
                CHANNELS 3 Zrotation Xrotation Yrotation
                JOINT lThumb2
                {
                  OFFSET 3.37035 -0.52449 3.41376
                  CHANNELS 3 Zrotation Xrotation Yrotation
                  End Site
                  {
                    OFFSET 1.78271 -1.18214 1.43049
                  }
                }
              }
              JOINT lIndex1
              {
                OFFSET 7.75947 0.938293 5.60832
                CHANNELS 3 Zrotation Xrotation Yrotation
                JOINT lIndex2
                {
                  OFFSET 2.54057 -0.884171 1.56538
                  CHANNELS 3 Zrotation Xrotation Yrotation
                  End Site
                  {
                    OFFSET 1.62519 -0.234802 1.16502
                  }
                }
              }
              JOINT lMid1
              {
                OFFSET 8.24714 1.18213 3.41376
                CHANNELS 3 Zrotation Xrotation Yrotation
                JOINT lMid2
                {
                  OFFSET 3.10165 -0.590103 1.0647
                  CHANNELS 3 Zrotation Xrotation Yrotation
                  End Site
                  {
                    OFFSET 2.48547 -0.328903 0.83742
                  }
                }
              }
              JOINT lRing1
              {
                OFFSET 8.82822 0.546677 1.51678
                CHANNELS 3 Zrotation Xrotation Yrotation
                JOINT lRing2
                {
                  OFFSET 2.60934 -0.819778 -0.0198488
                  CHANNELS 3 Zrotation Xrotation Yrotation
                  End Site
                  {
                    OFFSET 2.33842 -0.294052 0.168128
                  }
                }
              }
              JOINT lPinky1
              {
                OFFSET 8.27202 -0.0477905 -0.4584
                CHANNELS 3 Zrotation Xrotation Yrotation
                JOINT lPinky2
                {
                  OFFSET 1.82734 -0.647385 -0.700984
                  CHANNELS 3 Zrotation Xrotation Yrotation
                  End Site
                  {
                    OFFSET 1.69225 -0.51767 -0.607171
                  }
                }
              }
            }
          }
        }
      }
    }
  }
  JOINT rButtock
  {
    OFFSET -8.77824 4.35084 1.2192
    CHANNELS 3 Zrotation Xrotation Yrotation
    JOINT rThigh
    {
      OFFSET 0 -1.70687 -2.19456
      CHANNELS 3 Zrotation Xrotation Yrotation
      JOINT rShin
      {
        OFFSET 0 -36.8199 0.73152
        CHANNELS 3 Zrotation Xrotation Yrotation
        JOINT rFoot
        {
          OFFSET 0.73152 -45.1104 -5.12064
          CHANNELS 3 Zrotation Xrotation Yrotation
          End Site
          {
            OFFSET -1.1221 -3.69964 12.103
          }
        }
      }
    }
  }
  JOINT lButtock
  {
    OFFSET 8.77824 4.35084 1.2192
    CHANNELS 3 Zrotation Xrotation Yrotation
    JOINT lThigh
    {
      OFFSET 0 -1.70687 -2.19456
      CHANNELS 3 Zrotation Xrotation Yrotation
      JOINT lShin
      {
        OFFSET 0 -36.8199 0.73152
        CHANNELS 3 Zrotation Xrotation Yrotation
        JOINT lFoot
        {
          OFFSET -0.73152 -45.1104 -5.12064
          CHANNELS 3 Zrotation Xrotation Yrotation
          End Site
          {
            OFFSET 1.1221 -3.69964 12.103
          }
        }
      }
    }
  }
}
MOTION
Frames:	4
Frame Time:	0.03333
-2.5145301623269916 68.98149108886719 8.025480449199677 -3.027631938457489 -17.125555872917175 29.94685024023056 9.638350456953049 8.991125375032425 7.697099670767784 -1.3840527087450027 -6.270823627710342 9.683631509542465 -6.469651758670807 5.237198173999786 0.8565621078014374 3.6822330951690674 -19.657368063926697 8.943610712885857 0.6165868788957596 -4.9154698848724365 6.280633807182312 5.312625914812088 5.572932958602905 1.785375215113163 0.6965864449739456 -1.2900734692811966 -6.770256981253624 31.949921250343323 23.35806280374527 28.514311909675598 -18.154862970113754 -34.4285586476326 65.97528219223022 -5.633018463850021 -2.436726540327072 -1.6906633973121643 -3.7459204718470573 -4.629491418600082 -3.0375950038433075 4.119321517646313 6.095142960548401 -0.8494391664862633 -3.9050348103046417 4.854010418057442 0.2884532231837511 6.049523949623108 0.7655674964189529 -5.398954823613167 6.969624906778336 -2.7755938097834587 0.1242191344499588 -0.9341778606176376 -6.195249706506729 -1.556745059788227 1.107225939631462 3.1253381073474884 -6.473570466041565 7.225608229637146 4.157053828239441 -2.335182800889015 -6.550420448184013 -1.5239332616329193 9.135743379592896 7.381353378295898 -2.3202724009752274 2.364274710416794 -2.470441237092018 0.9460734575986862 0.6759013328701258 -35.45606464147568 30.943599343299866 -46.504536867141724 27.472187876701355 -29.46134626865387 -67.19014048576355 7.335625737905502 -15.792455077171326 6.240764111280441 1.9843223690986633 -2.9505036771297455 -3.374904915690422 2.6609860360622406 0.21602982887998223 -1.8450258672237396 6.468696892261505 4.42618265748024 -0.21925382316112518 -4.519347175955772 3.11112642288208 0.7374783977866173 2.1006486006081104 5.896133780479431 -4.497395306825638 -4.45785116404295 7.4093663692474365 -3.2552173733711243 -4.716874770820141 0.946122407913208 4.436914175748825 -14.150294065475464 -8.478114008903503 6.04603573679924 0.3821011260151863 -5.374403893947601 -1.55928460881114 -3.9165766909718513 6.0729121416807175 -2.216506451368332 -8.03104743361473 -6.195428743958473 0.3338143229484558 -28.355616331100464 -30.391364693641663 -26.597699224948883 -14.670677483081818 55.87523102760315 2.185937315225601 -8.218836262822151 -8.522072061896324 -10.335237309336662 -2.0838643424212933 1.113584116101265 10.46408325433731 38.7679785490036 -46.623321175575256 31.30866676568985 20.097285211086273 58.98729085922241 -19.55564260482788 -1.662368942052126 -4.011065885424614 7.963917776942253
-2.54985240008682 68.98092651367188 8.310548603534698 -3.0294933915138245 -17.12543785572052 29.945047795772552 9.637964218854904 8.992026597261429 7.696726843714714 -1.3861877471208572 -6.2702979147434235 9.683746844530106 -6.468114852905273 5.237938463687897 0.8560363948345184 3.6810529232025146 -19.65557634830475 8.944833800196648 0.6158009916543961 -4.9148958921432495 6.278101801872253 5.314042121171951 5.573909282684326 1.7857936397194862 0.6966132670640945 -1.2891266494989395 -6.770053133368492 31.94801151752472 23.35929661989212 28.514156341552734 -18.154031485319138 -34.42845672369003 65.97506761550903 -5.6333886086940765 -2.4360626935958862 -1.690845787525177 -3.7462208792567253 -4.629920572042465 -3.036232441663742 4.119015745818615 6.094096899032593 -0.8494767174124718 -3.9045627415180206 4.854943826794624 0.28890383429825306 6.049497127532959 0.7648754864931107 -5.39962001144886 6.970569044351578 -2.775636725127697 0.12406356632709503 -0.9347894042730331 -6.194579154253006 -1.5565036609768867 1.1071615666151047 3.124270588159561 -6.47169291973114 7.224277853965759 4.155852198600769 -2.3346302658319473 -6.550838872790337 -1.5240298211574554 9.136081337928772 7.381793260574341 -2.3199719935655594 2.364473193883896 -2.4698833376169205 0.9455638378858566 0.6766148004680872 -35.45499175786972 30.9442538022995 -46.50483727455139 27.47127592563629 -29.460412859916687 -67.18759775161743 7.333957403898239 -15.791875720024109 6.2402598559856415 1.9837108254432678 -2.949044555425644 -3.37246410548687 2.6613830029964447 0.21569187054410577 -1.8450634181499481 6.4686378836631775 4.426059275865555 -0.21941475570201874 -4.518942162394524 3.1122851371765137 0.738384984433651 2.100058514624834 5.896369814872742 -4.497062712907791 -4.45683728903532 7.409988641738892 -3.2557377219200134 -4.716231040656567 0.947045087814331 4.4382016360759735 -14.150079488754272 -8.477491736412048 6.0465507209300995 0.3817470744252205 -5.37318080663681 -1.5584450773894787 -3.916689343750477 6.073920652270317 -2.217375487089157 -8.029513210058212 -6.195085421204567 0.3347638249397278 -28.356528282165527 -30.390286445617676 -26.597329080104828 -14.671836197376251 55.87426006793976 2.185317724943161 -8.219152763485909 -8.523220047354698 -10.336599871516228 -2.08469046279788 1.1137772351503372 10.463568270206451 38.765355348587036 -46.622591614723206 31.307846009731293 20.097596347332 58.987001180648804 -19.55694615840912 -1.662814188748598 -4.011387750506401 7.963198944926262
-2.585174667648971 68.98091125488281 8.595616936683655 -3.029627501964569 -17.12544858455658 29.944983422756195 9.637932032346725 8.992090970277786 7.696759030222893 -1.3861126452684402 -6.270276457071304 9.683717340230942 -6.468050479888916 5.237949192523956 0.8560042083263397 3.681015372276306 -19.6555495262146 8.944876715540886 0.6158331781625748 -4.914842247962952 6.278091073036194 5.314020663499832 5.573909282684326 1.7857292667031288 0.6966990977525711 -1.2890944629907608 -6.769999489188194 31.94797396659851 23.359371721744537 28.514134883880615 -18.154020756483078 -34.42852646112442 65.97512125968933 -5.633469074964523 -2.4360626935958862 -1.690920889377594 -3.746253065764904 -4.629909843206406 -3.036135882139206 4.118962101638317 6.094011068344116 -0.8495035395026207 -3.904509097337723 4.854997470974922 0.28894674964249134 6.049561500549316 0.7648915797472 -5.3996361047029495 6.970569044351578 -2.7756474539637566 0.12415744364261627 -0.9348698705434799 -6.194627434015274 -1.556396372616291 1.1071240156888962 3.124200850725174 -6.471660733222961 7.224234938621521 4.15583074092865 -2.3345444351434708 -6.550838872790337 -1.5239118039608002 9.13615107536316 7.3818039894104 -2.319929078221321 2.3644866049289703 -2.469872608780861 0.9455155581235886 0.6766308937221766 -35.45500248670578 30.94422161579132 -46.50493383407593 27.471249103546143 -29.460434317588806 -67.18744218349457 7.333828657865524 -15.791923999786377 6.240179389715195 1.9837000966072083 -2.948915809392929 -3.3724158257246017 2.6613830029964447 0.21558994660153985 -1.845041960477829 6.46857887506485 4.4260163605213165 -0.21941475570201874 -4.518963620066643 3.1122958660125732 0.7384118065237999 2.0999190397560596 5.896466374397278 -4.497191458940506 -4.456762187182903 7.409977912902832 -3.255748450756073 -4.716241769492626 0.9470343589782715 4.438174813985825 -14.150176048278809 -8.477518558502197 6.046631187200546 0.3817470744252205 -5.373159348964691 -1.5584209375083447 -3.916710801422596 6.073920652270317 -2.2174398601055145 -8.029416650533676 -6.195085421204567 0.33481210470199585 -28.356581926345825 -30.390238165855408 -26.597345173358917 -14.671814739704132 55.87419033050537 2.1853499114513397 -8.219222500920296 -8.523284420371056 -10.336567685008049 -2.084744106978178 1.1137879639863968 10.463493168354034 38.765366077423096 -46.622575521469116 31.307819187641144 20.09763389825821 58.98708701133728 -19.556978344917297 -1.6628088243305683 -4.0113019198179245 7.963145300745964
-2.620497769676149 68.98065948486328 8.880686581134796 -3.0306413769721985 -17.12544858455658 29.94408220052719 9.637738913297653 8.992541581392288 7.696662470698357 -1.3869387656450272 -6.270018965005875 9.683706611394882 -6.4672404527664185 5.238313972949982 0.8557145297527313 3.6804360151290894 -19.654728770256042 8.945423886179924 0.6155676394701004 -4.914515018463135 6.276980638504028 5.314642935991287 5.574333071708679 1.7857936397194862 0.6968385726213455 -1.2886545807123184 -6.769806370139122 31.947088837623596 23.36002618074417 28.51404905319214 -18.15362110733986 -34.42860692739487 65.97509980201721 -5.633748024702072 -2.4357770383358 -1.6911247372627258 -3.7463603541254997 -4.630135148763657 -3.0354009568691254 4.118825308978558 6.093437075614929 -0.8495571836829185 -3.9041979610919952 4.855453446507454 0.28916132636368275 6.049620509147644 0.7646287232637405 -5.399931147694588 6.97101965546608 -2.7757010981440544 0.12418694794178009 -0.9352882951498032 -6.194375306367874 -1.5561281517148018 1.1070650070905685 3.1236322224140167 -6.470866799354553 7.223580479621887 4.155305027961731 -2.334168925881386 -6.550983712077141 -1.5237884223461151 9.136413931846619 7.381986379623413 -2.319757416844368 2.3645885288715363 -2.4696365743875504 0.94523124396801 0.6769527588039637 -35.45456260442734 30.94448983669281 -46.50519132614136 27.470868229866028 -29.46004807949066 -67.18612790107727 7.33293280005455 -15.791736245155334 6.239873617887497 1.9834104180335999 -2.948121875524521 -3.3712946623563766 2.661554664373398 0.21529490360990167 -1.844993680715561 6.468514502048492 4.425871521234512 -0.21947912871837616 -4.518824145197868 3.112821578979492 0.7388248667120934 2.099436242133379 5.896707773208618 -4.497223645448685 -4.456252567470074 7.410213947296143 -3.2560113072395325 -4.715946726500988 0.9474313259124756 4.438743442296982 -14.150208234786987 -8.477271795272827 6.046953052282333 0.38158345967531204 -5.3726014494895935 -1.558037381619215 -3.9167537167668343 6.074392721056938 -2.2179119288921356 -8.028595894575119 -6.194913759827614 0.3353431820869446 -28.357107639312744 -30.389744639396667 -26.597189605236053 -14.672222435474396 55.87366998195648 2.1851058304309845 -8.219485357403755 -8.523831591010094 -10.337114855647087 -2.0851625315845013 1.1138630658388138 10.463149845600128 38.76422882080078 -46.62223756313324 31.30744904279709 20.097856521606445 58.98710310459137 -19.557563066482544 -1.6630126722157001 -4.011323377490044 7.962780520319939
